<svg xmlns="http://www.w3.org/2000/svg" viewBox="0 0 572.557 309.591">
	<defs>
		<linearGradient id="a" x1="21.64" x2="21.64" y1="21.636" y2="43.276" gradientTransform="matrix(.55426 0 0 -.55426 509.247 217.802)" gradientUnits="userSpaceOnUse" spreadMethod="pad">
			<stop offset="0" stop-color="#ececec"/>
			<stop offset="1" stop-color="#e8e8e8"/>
		</linearGradient>
		<linearGradient id="b" x1="21.64" x2="21.64" y1="14.975" y2="15.14" gradientTransform="translate(509.247 193.816)scale(.55426)" gradientUnits="userSpaceOnUse" spreadMethod="pad">
			<stop offset="0" stop-color="#9e9e9e"/>
			<stop offset="1" stop-color="#d6d6d6"/>
		</linearGradient>
	</defs>
	<path fill="#fff" d="M0 0h572.557v309.591H0z"/>
	<path fill="#848484" d="M41.758 192.814v26h466.988v-26zm1 1h464.988v24H42.758Z"/>
	<path fill="#282d32" d="M261.257 209.703c0-.64-.528-1.2-1.184-1.2s-1.184.56-1.184 1.2c0 .656.528 1.2 1.184 1.2s1.184-.544 1.184-1.2m7.696 0c0-.64-.528-1.2-1.184-1.2s-1.184.56-1.184 1.2c0 .656.528 1.2 1.184 1.2s1.184-.544 1.184-1.2m-3.856 0c0-.64-.528-1.2-1.184-1.2s-1.184.56-1.184 1.2c0 .656.528 1.2 1.184 1.2s1.184-.544 1.184-1.2m-14.981 1.072h1.376v-3.968c0-1.871 1.024-2.927 2.32-2.927 1.12 0 1.888.832 1.888 2.176v4.72h1.36v-4.928c0-1.984-1.232-3.232-3.024-3.232-1.04 0-2 .448-2.544 1.392v-1.232h-1.376zm-2.005-4c0-2.303-1.776-4.16-4.176-4.16-2.416 0-4.192 1.857-4.192 4.16s1.776 4.16 4.192 4.16c2.4 0 4.176-1.856 4.176-4.16m-6.96 0c0-1.6 1.12-2.88 2.784-2.88s2.768 1.28 2.768 2.88-1.104 2.88-2.768 2.88-2.784-1.28-2.784-2.88m-4.768 4h1.376v-8h-1.376zm1.664-11.12a.966.966 0 0 0-.96-.975.994.994 0 0 0-.992.976c0 .544.448.976.992.976s.96-.432.96-.976m-3.461 11.007v-1.232c-.256.096-.64.16-.976.16-.864 0-1.328-.336-1.328-1.36v-4.191h2.304v-1.264h-2.304v-2.224h-1.376v2.224h-1.696v1.264h1.696v4.367c0 1.664 1.056 2.448 2.448 2.448.496 0 .896-.08 1.232-.192m-14.96-3.888c0 2.288 1.68 4.16 3.92 4.16 1.2 0 2.288-.624 2.816-1.392v1.232h1.376v-8h-1.376v1.233c-.528-.768-1.616-1.392-2.816-1.392-2.24 0-3.92 1.872-3.92 4.16m6.848 0c0 1.615-1.104 2.895-2.72 2.895s-2.736-1.28-2.736-2.896 1.12-2.895 2.736-2.895 2.72 1.28 2.72 2.895m-8.224 1.76c0-1.216-.8-1.936-2.176-2.352l-.88-.271c-.88-.272-1.136-.672-1.136-1.152 0-.592.656-.96 1.328-.96.768 0 1.312.4 1.664.912l1.024-.704c-.528-.896-1.456-1.392-2.64-1.392-1.536 0-2.736.816-2.752 2.192 0 1.12.688 1.951 2 2.335l.8.256c1.04.32 1.392.672 1.392 1.248 0 .688-.624 1.072-1.392 1.072-.88 0-1.744-.448-2.032-1.264l-1.12.624c.48 1.248 1.712 1.856 3.136 1.856 1.6 0 2.784-.864 2.784-2.4m-9.2 2.24h1.376v-8h-1.376zm1.664-11.12a.966.966 0 0 0-.96-.975.994.994 0 0 0-.992.976c0 .544.448.976.992.976s.96-.432.96-.976m-11.13 11.12h1.376v-3.969c0-1.871 1.024-2.927 2.32-2.927 1.12 0 1.888.832 1.888 2.176v4.72h1.36v-4.928c0-1.984-1.232-3.232-3.024-3.232-1.04 0-2 .448-2.544 1.392v-1.232h-1.376zm-10.624-4c0 2.287 1.68 4.16 3.92 4.16 1.2 0 2.288-.625 2.816-1.393v1.232h1.376v-8h-1.376v1.233c-.528-.768-1.616-1.392-2.816-1.392-2.24 0-3.92 1.872-3.92 4.16m6.848 0c0 1.615-1.104 2.895-2.72 2.895s-2.736-1.28-2.736-2.896 1.12-2.895 2.736-2.895 2.72 1.28 2.72 2.895m-8.901 3.536v-7.535h-1.376v1.232c-.544-.8-1.6-1.392-2.784-1.392-2.224 0-3.92 1.792-3.92 4.063 0 2.288 1.696 4.08 3.92 4.08 1.184 0 2.24-.608 2.784-1.408v.912c0 1.92-1.312 2.768-2.672 2.768-1.232 0-2.16-.528-2.8-1.344l-.96.96c.688.896 2.032 1.632 3.76 1.632 2.288 0 4.048-1.296 4.048-3.968m-6.672-3.632c0-1.6 1.104-2.8 2.704-2.8s2.704 1.2 2.704 2.8c0 1.616-1.104 2.8-2.704 2.8s-2.704-1.184-2.704-2.8m-6.384 4.096h1.376v-3.968c0-1.871 1.104-2.751 2.112-2.751.272 0 .496.032.752.128v-1.424a3 3 0 0 0-.624-.064c-.928 0-1.92.608-2.24 1.632v-1.552h-1.376zm-2.005-4c0-2.303-1.776-4.16-4.176-4.16-2.416 0-4.192 1.857-4.192 4.16s1.776 4.16 4.192 4.16c2.4 0 4.176-1.856 4.176-4.16m-6.96 0c0-1.6 1.12-2.88 2.784-2.88s2.768 1.28 2.768 2.88-1.104 2.88-2.768 2.88-2.784-1.28-2.784-2.88m-10.101 4h1.376v-3.968c0-1.871 1.104-2.751 2.112-2.751.272 0 .496.032.752.128v-1.424a3 3 0 0 0-.624-.064c-.928 0-1.92.608-2.24 1.632v-1.552h-1.376zm-9.312-3.088c0 1.984 1.184 3.248 2.944 3.248 1.008 0 1.936-.464 2.464-1.392v1.232h1.376v-8h-1.376v3.968c0 1.84-.976 2.928-2.224 2.928-1.104 0-1.808-.848-1.808-2.192v-4.703h-1.376zm-1.893-.912c0-2.303-1.776-4.16-4.176-4.16-2.416 0-4.192 1.857-4.192 4.16s1.776 4.16 4.192 4.16c2.4 0 4.176-1.856 4.176-4.16m-6.96 0c0-1.6 1.12-2.88 2.784-2.88s2.768 1.28 2.768 2.88-1.104 2.88-2.768 2.88-2.784-1.28-2.784-2.88m-7.173 7.344 5.248-11.343h-1.536l-2.736 6.063-2.752-6.063h-1.52l3.504 7.583-1.744 3.76zm-15.061-3.344h1.376v-3.968c0-1.871 1.024-2.927 2.32-2.927 1.12 0 1.888.832 1.888 2.176v4.72h1.36v-4.928c0-1.984-1.232-3.232-3.024-3.232-1.04 0-2 .448-2.544 1.392v-5.232h-1.376zm-1.803-1.984-1.2-.672c-.448.912-1.344 1.536-2.496 1.536-1.664 0-2.8-1.28-2.8-2.88s1.136-2.88 2.8-2.88c1.152 0 2.048.625 2.496 1.537l1.2-.672c-.704-1.28-2.048-2.144-3.696-2.144-2.416 0-4.192 1.84-4.192 4.16s1.776 4.16 4.192 4.16c1.648 0 2.992-.865 3.696-2.145m-12.73 1.984h1.376v-3.968c0-1.871 1.104-2.751 2.112-2.751.272 0 .496.032.752.128v-1.424a3 3 0 0 0-.624-.064c-.928 0-1.92.608-2.24 1.632v-1.552h-1.376zm-10.757-4c0 2.288 1.68 4.16 3.92 4.16 1.2 0 2.288-.624 2.816-1.392v1.232h1.376v-8h-1.376v1.233c-.528-.768-1.616-1.392-2.816-1.392-2.24 0-3.92 1.872-3.92 4.16m6.848 0c0 1.615-1.104 2.895-2.72 2.895s-2.736-1.28-2.736-2.896 1.12-2.895 2.736-2.895 2.72 1.28 2.72 2.895m-16.181 0c0 2.352 1.664 4.16 4.144 4.16 1.664 0 2.88-.736 3.6-1.904l-1.088-.752c-.496.848-1.264 1.392-2.496 1.392-1.584 0-2.72-1.12-2.768-2.624h6.56c.016-.176.016-.272.016-.416-.016-2.56-1.712-4.015-3.808-4.015-2.432 0-4.16 1.824-4.16 4.16m4.112-2.944c1.216 0 2.256.784 2.448 2.096H81.25c.256-1.328 1.424-2.096 2.624-2.096m-13.008 5.087c.592 1.168 2.112 2.048 3.984 2.048 2.112 0 3.616-1.216 3.616-3.152 0-1.68-.96-2.64-2.64-3.28l-1.376-.527c-1.152-.432-1.712-.864-1.712-1.824 0-.944.928-1.568 2.048-1.568.976 0 1.68.432 2.256 1.12l1.088-.96c-.704-.912-1.888-1.552-3.312-1.552-2.032 0-3.552 1.168-3.552 3.024 0 1.552.8 2.48 2.576 3.136l1.504.576c1.056.4 1.632 1.007 1.632 1.92 0 1.055-.928 1.695-2.096 1.695-1.28 0-2.208-.592-2.816-1.552z"/>
	<path fill="#999" d="M508.747 218.815h25.999v-1h-26zm0-25h25.999v-1h-26zm24.999 25h1v-26h-1z"/>
	<path fill="url(#a)" d="M509.247 205.788h24v-11.973h-24z"/>
	<path fill="url(#b)" d="M509.247 217.76h24v-11.973h-24z"/>
	<path fill="#020202" d="m521.218 210.166 8.092-8.148h-16.127z"/>
	<path fill="#285f82" d="M269.491 165.843c0 2.352 1.664 4.16 4.144 4.16 1.664 0 2.88-.736 3.6-1.904l-1.088-.752c-.496.848-1.264 1.392-2.496 1.392-1.584 0-2.72-1.12-2.768-2.624h6.56c.016-.176.016-.272.016-.416-.016-2.56-1.712-4.016-3.808-4.016-2.432 0-4.16 1.824-4.16 4.16m4.112-2.944c1.216 0 2.256.784 2.448 2.096h-5.072c.256-1.328 1.424-2.096 2.624-2.096m-5.29 4.96-1.2-.672c-.448.912-1.344 1.536-2.496 1.536-1.664 0-2.8-1.28-2.8-2.88s1.136-2.88 2.8-2.88c1.152 0 2.048.624 2.496 1.536l1.2-.672c-.704-1.28-2.048-2.144-3.696-2.144-2.416 0-4.192 1.84-4.192 4.16s1.776 4.16 4.192 4.16c1.648 0 2.992-.864 3.696-2.144m-11.264 1.984h1.376v-8h-1.376zm1.664-11.12a.966.966 0 0 0-.96-.976.994.994 0 0 0-.992.976c0 .544.448.976.992.976s.96-.432.96-.976m-7.835 11.12h1.152l3.696-8h-1.536l-2.736 6.048-2.735-6.048h-1.536zm-8.362 0h1.376v-3.968c0-1.872 1.104-2.752 2.112-2.752.272 0 .496.032.752.128v-1.424a3 3 0 0 0-.624-.064c-.928 0-1.92.608-2.24 1.632v-1.552h-1.376Zm-9.957-4c0 2.352 1.664 4.16 4.144 4.16 1.664 0 2.88-.736 3.6-1.904l-1.088-.752c-.496.848-1.264 1.392-2.496 1.392-1.584 0-2.72-1.12-2.768-2.624h6.56c.016-.176.016-.272.016-.416-.016-2.56-1.712-4.016-3.808-4.016-2.432 0-4.16 1.824-4.16 4.16m4.112-2.944c1.216 0 2.256.784 2.448 2.096h-5.072c.256-1.328 1.424-2.096 2.624-2.096m-5.488 4.704c0-1.216-.8-1.936-2.176-2.352l-.88-.272c-.88-.272-1.136-.672-1.136-1.152 0-.592.656-.96 1.328-.96.768 0 1.312.4 1.664.912l1.024-.704c-.528-.896-1.456-1.392-2.64-1.392-1.536 0-2.736.816-2.752 2.192 0 1.12.688 1.952 2 2.336l.8.256c1.04.32 1.392.672 1.392 1.248 0 .688-.624 1.072-1.392 1.072-.88 0-1.744-.448-2.032-1.264l-1.12.624c.48 1.248 1.712 1.856 3.136 1.856 1.6 0 2.784-.864 2.784-2.4m-18.89-1.76c0 2.352 1.664 4.16 4.144 4.16 1.664 0 2.88-.736 3.6-1.904l-1.088-.752c-.496.848-1.264 1.392-2.496 1.392-1.584 0-2.72-1.12-2.768-2.624h6.56c.016-.176.016-.272.016-.416-.016-2.56-1.712-4.016-3.808-4.016-2.432 0-4.16 1.824-4.16 4.16m4.112-2.944c1.216 0 2.256.784 2.448 2.096h-5.072c.256-1.328 1.424-2.096 2.624-2.096m-12.955 6.944h1.376v-3.968c0-1.872 1.024-2.928 2.32-2.928 1.12 0 1.888.832 1.888 2.176v4.72h1.36v-4.928c0-1.984-1.232-3.232-3.024-3.232-1.04 0-2 .448-2.544 1.392v-5.232h-1.376zm-1.797-.112V168.5c-.256.096-.64.16-.976.16-.864 0-1.328-.336-1.328-1.36v-4.192h2.304v-1.264h-2.304v-2.224h-1.376v2.224h-1.696v1.264h1.696v4.368c0 1.664 1.056 2.448 2.448 2.448.496 0 .896-.08 1.232-.192m-9.808-3.888c0-2.304-1.776-4.16-4.176-4.16-2.416 0-4.192 1.856-4.192 4.16s1.776 4.16 4.192 4.16c2.4 0 4.176-1.856 4.176-4.16m-6.96 0c0-1.6 1.12-2.88 2.784-2.88s2.768 1.28 2.768 2.88-1.104 2.88-2.768 2.88-2.784-1.28-2.784-2.88m-2.432 3.888V168.5c-.255.096-.64.16-.975.16-.864 0-1.328-.336-1.328-1.36v-4.192h2.304v-1.264h-2.304v-2.224h-1.376v2.224h-1.696v1.264h1.696v4.368c0 1.664 1.056 2.448 2.448 2.448.496 0 .896-.08 1.231-.192m-17.402.112h1.376v-3.968c0-1.872 1.024-2.928 2.32-2.928 1.12 0 1.888.832 1.888 2.176v4.72h1.36v-4.928c0-1.984-1.232-3.232-3.024-3.232-1.04 0-2 .448-2.544 1.392v-1.232h-1.376zm-4 0h1.376v-8h-1.376zm1.664-11.12a.966.966 0 0 0-.96-.976.994.994 0 0 0-.992.976c0 .544.448.976.992.976s.96-.432.96-.976m-8.074 10.656v-7.536h-1.376v1.232c-.544-.8-1.6-1.392-2.784-1.392-2.224 0-3.92 1.792-3.92 4.064 0 2.288 1.696 4.08 3.92 4.08 1.184 0 2.24-.608 2.784-1.408v.912c0 1.92-1.312 2.768-2.672 2.768-1.232 0-2.16-.528-2.8-1.344l-.96.96c.688.896 2.032 1.632 3.76 1.632 2.288 0 4.048-1.296 4.048-3.968m-6.672-3.632c0-1.6 1.104-2.8 2.704-2.8s2.704 1.2 2.704 2.8c0 1.616-1.104 2.8-2.704 2.8s-2.704-1.184-2.704-2.8m-10.25 4.096h1.376v-3.968c0-1.872 1.024-2.928 2.32-2.928 1.12 0 1.887.832 1.887 2.176v4.72h1.36v-4.928c0-1.984-1.232-3.232-3.023-3.232-1.04 0-2 .448-2.544 1.392v-1.232h-1.376zm-4 0h1.376v-8h-1.376zm1.664-11.12a.966.966 0 0 0-.96-.976.994.994 0 0 0-.992.976c0 .544.448.976.992.976s.96-.432.96-.976m-10.997 11.12h1.376v-3.968c0-1.872 1.024-2.928 2.32-2.928 1.12 0 1.887.832 1.887 2.176v4.72h1.36v-4.928c0-1.984-1.232-3.232-3.023-3.232-1.04 0-2 .448-2.544 1.392v-1.232h-1.376zm-2.678-.464v-7.536h-1.376v1.232c-.544-.8-1.6-1.392-2.784-1.392-2.223 0-3.92 1.792-3.92 4.064 0 2.288 1.697 4.08 3.92 4.08 1.184 0 2.24-.608 2.784-1.408v.912c0 1.92-1.312 2.768-2.672 2.768-1.232 0-2.16-.528-2.8-1.344l-.96.96c.689.896 2.033 1.632 3.76 1.632 2.288 0 4.048-1.296 4.048-3.968m-6.671-3.632c0-1.6 1.103-2.8 2.703-2.8s2.704 1.2 2.704 2.8c0 1.616-1.104 2.8-2.704 2.8s-2.703-1.184-2.703-2.8m-4.651 4.096h1.376v-8h-1.376zm1.664-11.12a.966.966 0 0 0-.96-.976.994.994 0 0 0-.992.976c0 .544.448.976.992.976s.96-.432.96-.976m-3.664 8.88c0-1.216-.8-1.936-2.176-2.352l-.88-.272c-.88-.272-1.136-.672-1.136-1.152 0-.592.656-.96 1.328-.96.768 0 1.312.4 1.664.912l1.024-.704c-.528-.896-1.456-1.392-2.64-1.392-1.536 0-2.736.816-2.752 2.192 0 1.12.688 1.952 2 2.336l.8.256c1.04.32 1.392.672 1.392 1.248 0 .688-.624 1.072-1.392 1.072-.88 0-1.744-.448-2.032-1.264l-1.12.624c.48 1.248 1.712 1.856 3.136 1.856 1.6 0 2.784-.864 2.784-2.4m-19.024-1.76c0 2.352 1.664 4.16 4.144 4.16 1.664 0 2.88-.736 3.6-1.904l-1.088-.752c-.496.848-1.264 1.392-2.496 1.392-1.584 0-2.72-1.12-2.768-2.624h6.56c.016-.176.016-.272.016-.416-.016-2.56-1.712-4.016-3.808-4.016-2.432 0-4.16 1.824-4.16 4.16m4.112-2.944c1.216 0 2.256.784 2.448 2.096H90.85c.256-1.328 1.424-2.096 2.624-2.096m-9.087 6.944h1.376v-3.968c0-1.872 1.104-2.752 2.112-2.752.272 0 .496.032.752.128v-1.424a3 3 0 0 0-.624-.064c-.928 0-1.92.608-2.24 1.632v-1.552h-1.376zm-10.624-4c0 2.288 1.68 4.16 3.92 4.16 1.2 0 2.288-.624 2.816-1.392v1.232h1.376v-8h-1.376v1.232c-.528-.768-1.616-1.392-2.816-1.392-2.24 0-3.92 1.872-3.92 4.16m6.848 0c0 1.616-1.104 2.896-2.72 2.896s-2.736-1.28-2.736-2.896 1.12-2.896 2.736-2.896 2.72 1.28 2.72 2.896m-19.536.912c0 1.984 1.184 3.248 2.944 3.248 1.008 0 1.936-.464 2.464-1.392v1.232h1.376v-8h-1.376v3.968c0 1.84-.976 2.928-2.224 2.928-1.104 0-1.808-.848-1.808-2.192v-4.704h-1.376Zm-1.893-.912c0-2.304-1.776-4.16-4.176-4.16-2.416 0-4.192 1.856-4.192 4.16s1.776 4.16 4.192 4.16c2.4 0 4.176-1.856 4.176-4.16m-6.96 0c0-1.6 1.12-2.88 2.784-2.88s2.768 1.28 2.768 2.88-1.104 2.88-2.768 2.88-2.784-1.28-2.784-2.88m-6.341 4h1.472v-4.8l4.432-6.56h-1.776l-3.392 5.056-3.376-5.056h-1.776l4.416 6.544zm47.667-47.065h3.437v-6.124c0-2.41 1.205-3.564 2.787-3.564 1.43 0 2.209 1.104 2.209 2.91v6.778h3.438v-7.355c0-3.262-1.808-5.472-4.845-5.472-1.63 0-2.936.703-3.589 1.708v-1.432h-3.437zm-6.8 0h3.437v-12.55h-3.437zm3.914-16.792a2.19 2.19 0 0 0-2.207-2.184c-1.18 0-2.184.979-2.184 2.184a2.2 2.2 0 0 0 2.184 2.184 2.19 2.19 0 0 0 2.207-2.184M83.479 121.8v-11.572H80.04v1.407c-.653-.955-2.033-1.683-3.64-1.683-3.262 0-5.923 2.812-5.923 6.35 0 3.515 2.66 6.326 5.923 6.326 1.607 0 2.987-.728 3.64-1.656v.853c0 2.008-1.33 3.439-3.364 3.439a5.67 5.67 0 0 1-3.915-1.557l-1.883 2.56c1.43 1.355 3.69 2.009 5.848 2.009 3.841 0 6.752-1.934 6.752-6.476m-9.537-5.497c0-1.932 1.456-3.212 3.187-3.212 1.732 0 3.188 1.28 3.188 3.212 0 1.908-1.456 3.213-3.188 3.213-1.731 0-3.187-1.305-3.187-3.213m-5.087.201c0-3.665-2.961-6.552-6.601-6.552-3.639 0-6.601 2.887-6.601 6.552s2.962 6.55 6.6 6.55c3.64 0 6.602-2.886 6.602-6.55m-9.738 0c0-1.933 1.33-3.339 3.137-3.339 1.808 0 3.113 1.406 3.113 3.34 0 1.931-1.305 3.336-3.113 3.336-1.807 0-3.137-1.405-3.137-3.337m-15.91 6.275h11.27v-3.464h-7.63v-14.357h-3.64z"/>
	<path fill="#282d32" d="M365.832 164.163q0-1.165-.438-2.212a5.5 5.5 0 0 0-1.196-1.782 5.5 5.5 0 0 0-1.784-1.192 5.7 5.7 0 0 0-2.205-.436 5.65 5.65 0 0 0-2.199.436 5.5 5.5 0 0 0-1.785 1.192 5.5 5.5 0 0 0-1.198 1.784 5.65 5.65 0 0 0-.44 2.21q0 1.165.44 2.21.422 1.013 1.198 1.785a5.5 5.5 0 0 0 1.785 1.192 5.65 5.65 0 0 0 2.2.436q1.158 0 2.204-.436 1.012-.42 1.784-1.192a5.5 5.5 0 0 0 1.196-1.783q.437-1.048.438-2.212m.5 0q0 1.264-.476 2.404a6 6 0 0 1-1.304 1.945q-.843.84-1.946 1.3a6.2 6.2 0 0 1-2.397.474 6.2 6.2 0 0 1-2.39-.474 6 6 0 0 1-1.946-1.3q-.846-.842-1.308-1.945a6.2 6.2 0 0 1-.478-2.404q0-1.263.478-2.405.462-1.1 1.308-1.944a6 6 0 0 1 1.945-1.299 6.15 6.15 0 0 1 2.391-.474q1.26 0 2.397.474a6 6 0 0 1 1.946 1.299q.843.842 1.304 1.945.476 1.138.476 2.404m-10.741 0q0-.97.353-1.844a4.6 4.6 0 0 1 .972-1.498 4.5 4.5 0 0 1 1.466-1.006 4.6 4.6 0 0 1 1.827-.366q.97 0 1.836.366.836.354 1.47 1.006.633.648.975 1.498.354.873.354 1.844 0 .97-.354 1.844a4.6 4.6 0 0 1-.974 1.499 4.5 4.5 0 0 1-1.471 1.005 4.7 4.7 0 0 1-1.836.365 4.6 4.6 0 0 1-1.827-.365 4.5 4.5 0 0 1-1.466-1.005 4.6 4.6 0 0 1-.972-1.499 4.9 4.9 0 0 1-.353-1.844m.5 0q0 .874.315 1.658.306.757.868 1.335.563.58 1.304.894a4.1 4.1 0 0 0 1.631.326 4.15 4.15 0 0 0 1.641-.326 4 4 0 0 0 1.308-.894 4.1 4.1 0 0 0 .87-1.335 4.4 4.4 0 0 0 .316-1.658 4.4 4.4 0 0 0-.316-1.657 4.1 4.1 0 0 0-.87-1.336 4 4 0 0 0-1.308-.893 4.2 4.2 0 0 0-1.64-.328q-.864 0-1.632.326a4 4 0 0 0-1.304.895q-.562.578-.868 1.336a4.4 4.4 0 0 0-.316 1.657m-.249 0c0 2.496 1.888 4.464 4.368 4.464 2.496 0 4.384-1.968 4.384-4.464s-1.888-4.464-4.384-4.464c-2.48 0-4.368 1.968-4.368 4.464m10.24 0c0 3.296-2.592 5.872-5.872 5.872-3.264 0-5.872-2.576-5.872-5.872s2.608-5.872 5.872-5.872c3.28 0 5.872 2.576 5.872 5.872m-20.465 3.71q.422.831 1.407 1.355 1.046.557 2.354.558.748 0 1.379-.208.614-.203 1.059-.583.446-.38.682-.905.246-.546.247-1.207 0-1.126-.632-1.868-.594-.7-1.848-1.178l-1.376-.528q-.963-.362-1.375-.771-.498-.495-.498-1.287 0-.41.193-.762.181-.334.513-.576.317-.234.728-.358.411-.121.864-.121.764 0 1.395.33.566.297 1.053.88l-.192.16-.165-.189 1.088-.96.165.188-.197.152a3.6 3.6 0 0 0-1.299-1.045 4.1 4.1 0 0 0-1.816-.41q-.718 0-1.334.2-.604.195-1.044.56a2.5 2.5 0 0 0-.678.866 2.7 2.7 0 0 0-.245 1.15q0 1.064.564 1.743.568.685 1.848 1.158l1.507.577q1.792.678 1.793 2.153a1.8 1.8 0 0 1-.19.823q-.182.36-.518.618-.32.248-.745.378a3 3 0 0 1-.894.126q-1 0-1.784-.448-.738-.423-1.244-1.22l.212-.133.15.2-1.2.896-.15-.2zm-.541.04 1.585-1.184.144.229q.91 1.435 2.605 1.434.815 0 1.334-.4.512-.394.513-1.045 0-.576-.359-.988-.362-.415-1.113-.698l-1.501-.575q-1.406-.52-2.06-1.307-.68-.817-.679-2.064 0-.739.292-1.362.284-.6.812-1.038a3.6 3.6 0 0 1 1.208-.65q.691-.224 1.49-.224 1.093 0 2.035.46.891.435 1.475 1.19l.143.184-1.456 1.286-.166-.198a3 3 0 0 0-.902-.756 2.46 2.46 0 0 0-1.162-.273q-.777 0-1.296.381-.501.37-.502.936 0 .586.35.932.336.335 1.202.659l1.376.528q1.371.523 2.05 1.321.75.882.75 2.192 0 .768-.29 1.412-.283.627-.813 1.08a3.6 3.6 0 0 1-1.228.677 4.9 4.9 0 0 1-1.535.234q-1.432 0-2.589-.616a4.2 4.2 0 0 1-.96-.69 3.3 3.3 0 0 1-.657-.88zm1.518-.822c.608.96 1.536 1.552 2.816 1.552 1.168 0 2.096-.64 2.096-1.696 0-.912-.576-1.52-1.632-1.92l-1.504-.576c-1.776-.656-2.576-1.584-2.576-3.136 0-1.856 1.52-3.024 3.552-3.024 1.424 0 2.608.64 3.312 1.552l-1.088.96c-.576-.688-1.28-1.12-2.256-1.12-1.12 0-2.048.624-2.048 1.568 0 .96.56 1.392 1.712 1.824l1.376.528c1.68.64 2.64 1.6 2.64 3.28 0 1.936-1.504 3.152-3.616 3.152-1.872 0-3.392-.88-3.984-2.048zm-9.91.783q.421.83 1.407 1.354 1.046.557 2.354.558.748 0 1.379-.208.614-.203 1.058-.583.447-.38.683-.905.246-.547.247-1.207 0-1.126-.632-1.868-.594-.7-1.848-1.178l-1.376-.528q-.964-.362-1.375-.771-.498-.495-.498-1.287 0-.41.193-.762.181-.334.513-.576.316-.234.728-.358.411-.12.864-.121.764 0 1.395.33.565.297 1.053.88l-.192.16-.165-.189 1.088-.96.165.188-.197.152a3.6 3.6 0 0 0-1.299-1.045 4.1 4.1 0 0 0-1.816-.41q-.718 0-1.334.2-.604.195-1.044.56a2.5 2.5 0 0 0-.678.866 2.7 2.7 0 0 0-.245 1.15q0 1.064.564 1.743.569.685 1.848 1.158l1.507.577q1.792.678 1.793 2.153a1.8 1.8 0 0 1-.19.823q-.183.36-.518.618-.32.248-.745.378a3 3 0 0 1-.894.126q-1 0-1.784-.448-.738-.423-1.244-1.22l.212-.133.15.2-1.2.896-.15-.2zm-.541.039 1.585-1.184.144.229q.91 1.435 2.605 1.435.816 0 1.334-.4.511-.395.513-1.046 0-.577-.359-.988-.362-.415-1.113-.698l-1.501-.575q-1.406-.52-2.06-1.307-.68-.817-.679-2.064 0-.739.292-1.362.284-.6.812-1.038a3.6 3.6 0 0 1 1.208-.65q.691-.224 1.49-.224 1.093 0 2.035.46.89.434 1.475 1.19l.142.184-1.455 1.286-.166-.198a3 3 0 0 0-.902-.756 2.46 2.46 0 0 0-1.162-.273q-.777 0-1.296.381-.502.37-.502.936 0 .586.35.932.336.335 1.202.659l1.376.528q1.372.523 2.05 1.321.75.882.75 2.192 0 .768-.29 1.412-.283.628-.813 1.08a3.6 3.6 0 0 1-1.228.677 4.9 4.9 0 0 1-1.535.234q-1.432 0-2.589-.616a4.2 4.2 0 0 1-.96-.69 3.3 3.3 0 0 1-.657-.88zm1.518-.822c.608.96 1.536 1.552 2.816 1.552 1.168 0 2.096-.64 2.096-1.696 0-.912-.576-1.52-1.632-1.92l-1.504-.576c-1.776-.656-2.576-1.584-2.576-3.136 0-1.856 1.52-3.024 3.552-3.024 1.424 0 2.608.64 3.312 1.552l-1.088.96c-.576-.688-1.28-1.12-2.256-1.12-1.12 0-2.048.624-2.048 1.568 0 .96.56 1.392 1.712 1.824l1.376.528c1.68.64 2.64 1.6 2.64 3.28 0 1.936-1.504 3.152-3.616 3.152-1.872 0-3.392-.88-3.984-2.048zm-16.271 2.501h1.488v.251h-.25v-5.369h6.724v5.37h-.25v-.252h1.487v.251h-.249v-11.36h.25v.251H329.1v-.25h.25v5.098h-6.724v-5.099h.25v.251h-1.488v-.25h.25v11.36h-.25zm-.25.5v-11.858h1.988v5.097h-.25v-.249h6.224v.25h-.25v-5.098h1.988v11.858h-1.988v-5.369h.25v.251h-6.224v-.25h.25v5.368h-1.738zm.25-11.609h1.488v4.848h6.224v-4.848h1.487v11.36h-1.487v-5.12h-6.224v5.12h-1.488zm-6.763 11.11h1.456v.25h-.25v-10.202h3.786v.25h-.25v-1.408h.25v.251h-8.528v-.25h.25v1.407h-.25v-.25h3.786v10.202h-.25zm-.25.5V159.89h.25v.25h-3.786v-1.907h9.029v1.907h-3.787v-.25h.25v10.201h-1.706zm.25-10.202h-3.536v-1.408h8.528v1.408h-3.536v9.952h-1.456zm-11.237 9.701h6.624v.251h-.25v-1.408h.25v.25h-5.385v-4.196h4.425v.25h-.25v-1.408h.25v.251h-4.425v-3.941h5.385v.25h-.25v-1.408h.25v.251h-6.624v-.25h.25v11.36h-.25zm-.25.5v-11.858h7.125v1.907h-5.387v-.25h.25v3.44h-.25v-.249h4.427v1.907h-4.427v-.25h.25v3.696h-.25v-.25h5.387v1.907h-6.875zm.25-11.609h6.624v1.408h-5.136v3.44h4.176v1.408h-4.176v3.696h5.136v1.408h-6.624zm-9.638 9.39q.421.831 1.406 1.356 1.047.556 2.355.557.747 0 1.379-.208.612-.203 1.058-.583t.683-.905q.246-.547.247-1.207 0-1.126-.632-1.868-.594-.7-1.848-1.178l-1.376-.528q-.963-.362-1.375-.771-.499-.495-.499-1.287.001-.41.194-.762.181-.334.513-.576.315-.234.728-.358.41-.12.864-.12.764-.001 1.395.328.566.299 1.053.88l-.192.16-.165-.188 1.088-.96.165.188-.197.152a3.6 3.6 0 0 0-1.3-1.045 4.1 4.1 0 0 0-1.815-.41q-.718 0-1.335.2-.604.195-1.044.56a2.5 2.5 0 0 0-.677.866 2.7 2.7 0 0 0-.245 1.15q0 1.064.564 1.743.567.685 1.848 1.158l1.506.577q1.793.678 1.794 2.153a1.8 1.8 0 0 1-.191.823q-.181.36-.517.619-.32.247-.746.377a3 3 0 0 1-.893.127q-1 0-1.784-.448-.739-.425-1.244-1.22l.212-.134.15.2-1.2.896-.15-.2zm-.542.04 1.586-1.184.144.229q.909 1.435 2.605 1.435.816 0 1.333-.4.514-.395.514-1.046 0-.577-.36-.988-.361-.414-1.112-.698l-1.502-.575q-1.404-.52-2.06-1.307-.679-.817-.678-2.064 0-.739.292-1.362.284-.6.812-1.038a3.6 3.6 0 0 1 1.208-.65q.691-.224 1.489-.224 1.094 0 2.036.46.89.434 1.475 1.19l.142.184-1.456 1.286-.165-.198a3 3 0 0 0-.903-.756 2.46 2.46 0 0 0-1.161-.273q-.778 0-1.296.381-.503.37-.503.936 0 .586.351.932.336.335 1.201.659l1.376.528q1.373.523 2.05 1.321.751.882.752 2.192 0 .768-.291 1.412-.283.628-.813 1.08a3.6 3.6 0 0 1-1.228.678 4.9 4.9 0 0 1-1.535.233q-1.433 0-2.59-.616a4.2 4.2 0 0 1-.96-.69 3.3 3.3 0 0 1-.657-.88zm1.519-.822c.608.96 1.536 1.552 2.816 1.552 1.168 0 2.096-.64 2.096-1.696 0-.912-.576-1.52-1.632-1.92l-1.504-.576c-1.776-.656-2.576-1.584-2.576-3.136 0-1.856 1.52-3.024 3.552-3.024 1.424 0 2.608.64 3.312 1.552l-1.088.96c-.576-.688-1.28-1.12-2.256-1.12-1.12 0-2.048.624-2.048 1.568 0 .96.56 1.392 1.712 1.824l1.376.528c1.68.64 2.64 1.6 2.64 3.28 0 1.936-1.504 3.152-3.616 3.152-1.872 0-3.392-.88-3.984-2.048zm-7.733 2.502h1.248v.25l-.23-.097 4.832-11.36.23.097v.251h-1.616v-.25l.23.097-4.053 9.566-4.072-9.565.231-.099v.251h-1.648v-.25l.23-.1 4.847 11.362-.23.097zm-.165.5-5.062-11.859h2.192l3.904 9.176-.23.097-.23-.097 3.89-9.176h2.158l-5.044 11.859h-1.413zm-4.683-11.61h1.648l3.84 9.024 3.824-9.024h1.616l-4.832 11.36h-1.248z"/>
	<path fill="#285f82" d="M42.258 253.314a18 18 0 0 1 1.371-6.887 18 18 0 0 1 1.663-3.112 18 18 0 0 1 11.454-7.655q1.74-.345 3.512-.345h102.997a18 18 0 0 1 10 3.033 18 18 0 0 1 4.967 4.967q.984 1.474 1.662 3.112.68 1.637 1.026 3.375.345 1.74.345 3.512a17.96 17.96 0 0 1-3.033 10 18 18 0 0 1-4.967 4.967q-1.474.984-3.112 1.662a18 18 0 0 1-3.376 1.026q-1.74.344-3.512.345H60.258q-1.772 0-3.512-.345a18 18 0 0 1-3.376-1.026 18 18 0 0 1-3.112-1.662 18 18 0 0 1-4.966-4.967 18 18 0 0 1-1.663-3.112 17.9 17.9 0 0 1-1.37-6.888m327.758-84.543c0-.64-.528-1.2-1.184-1.2s-1.184.56-1.184 1.2c0 .656.528 1.2 1.184 1.2s1.184-.544 1.184-1.2"/>
	<path fill="#285f82" d="M60.258 234.814q-1.822.001-3.61.356a18.5 18.5 0 0 0-13.48 11.066 18.5 18.5 0 0 0-1.41 7.078v.5h.05c.06 2.258.492 4.492 1.36 6.58a18.5 18.5 0 0 0 13.48 11.065 18.5 18.5 0 0 0 3.61.355h102.998q1.82-.001 3.607-.355h.002a18.5 18.5 0 0 0 3.469-1.055 18.5 18.5 0 0 0 8.305-6.812h-.002a18.46 18.46 0 0 0 3.119-10.278q-.001-1.82-.356-3.609a18.4 18.4 0 0 0-1.054-3.469v-.002a18.5 18.5 0 0 0-6.813-8.302 18.5 18.5 0 0 0-10.277-3.118zm0 1h102.998a17.495 17.495 0 0 1 16.166 10.805 17.4 17.4 0 0 1 1.334 6.695 17.46 17.46 0 0 1-2.95 9.721v.002a17.5 17.5 0 0 1-14.552 7.778H60.258q-1.724 0-3.414-.336a17.5 17.5 0 0 1-3.282-.998h-.001a17.5 17.5 0 0 1-9.469-9.47h-.002a17.4 17.4 0 0 1-1.33-6.696v-.02c.003-2.291.455-4.56 1.332-6.676a17.5 17.5 0 0 1 16.166-10.805"/>
	<path fill="#fff" d="M77.757 253.314a17.5 17.5 0 0 1-1.332 6.697 17.5 17.5 0 0 1-1.617 3.026 17.6 17.6 0 0 1-2.176 2.652 17.5 17.5 0 0 1-5.677 3.793 17.4 17.4 0 0 1-6.697 1.332 17.5 17.5 0 0 1-9.723-2.95 17.5 17.5 0 0 1-2.651-2.175 17.6 17.6 0 0 1-2.176-2.652 17.5 17.5 0 0 1-1.618-3.026 17.5 17.5 0 0 1-1.332-6.697q0-1.725.336-3.413a17.5 17.5 0 0 1 2.614-6.31 17.5 17.5 0 0 1 2.176-2.651 17.5 17.5 0 0 1 5.677-3.793 17.4 17.4 0 0 1 6.697-1.332 17.5 17.5 0 0 1 9.722 2.949 17.5 17.5 0 0 1 2.652 2.176 17.5 17.5 0 0 1 3.793 5.677 17.4 17.4 0 0 1 1.332 6.697m80.094 4.526h1.376v-3.967c0-1.872 1.024-2.928 2.32-2.928 1.12 0 1.888.832 1.888 2.176v4.72h1.36v-4.928c0-1.984-1.232-3.232-3.024-3.232-1.04 0-2 .448-2.544 1.392v-5.232h-1.376zm-1.669-1.983-1.2-.672c-.448.912-1.344 1.536-2.496 1.536-1.664 0-2.8-1.28-2.8-2.88s1.136-2.88 2.8-2.88c1.152 0 2.048.624 2.496 1.536l1.2-.672c-.704-1.28-2.048-2.144-3.696-2.144-2.416 0-4.192 1.84-4.192 4.16s1.776 4.16 4.192 4.16c1.648 0 2.992-.864 3.696-2.144m-11.264 1.984h1.376v-8h-1.376zm1.664-11.12a.966.966 0 0 0-.96-.976.994.994 0 0 0-.992.976c0 .544.448.976.992.976s.96-.432.96-.976m-7.53 11.12h1.376v-3.968c0-1.872 1.104-2.752 2.112-2.752.272 0 .496.032.752.128v-1.424a3 3 0 0 0-.624-.064c-.928 0-1.92.608-2.24 1.632v-1.552h-1.376zm-9.445-3.088c0 1.984 1.184 3.248 2.944 3.248 1.008 0 1.936-.464 2.464-1.392v1.232h1.376v-8h-1.376v3.968c0 1.84-.976 2.928-2.224 2.928-1.104 0-1.808-.848-1.808-2.192v-4.704h-1.376zm6.112-7.376a.94.94 0 0 0-.928-.944.956.956 0 0 0-.944.944c0 .512.432.928.944.928a.93.93 0 0 0 .928-.928m-3.6 0a.94.94 0 0 0-.928-.944.946.946 0 0 0-.944.944c0 .512.416.928.944.928a.93.93 0 0 0 .928-.928M119.9 257.841h8.288v-1.408h-6.32l6.16-8.96v-.992h-7.952v1.408h5.984l-6.16 8.96zm-15.04 0h1.489v-5.12h6.224v5.12h1.488v-11.36h-1.488v4.848h-6.224v-4.848h-1.488zm-6.762 0h1.456v-9.952h3.536v-1.408h-8.528v1.408h3.536zm-11.237 0h6.624v-1.408H88.35v-3.696h4.176v-1.408H88.35v-3.44h5.136v-1.408h-6.624z"/>
	<path fill="#31749e" d="M192.148 39.234h6.094c5.315 0 9.502 4.09 9.502 9.268s-4.187 9.268-9.502 9.268h-6.094zm6.073 15.056c3.405 0 5.705-2.59 5.705-5.788 0-3.22-2.3-5.786-5.705-5.786h-2.3V54.31h2.3zm-13.969 3.481h3.774V39.234h-3.774zm-10.977-5.592h7.44v-3.438h-7.44zm-15.226-7.462h3.557v6.962c0 1.958.672 3.111 2.212 3.111 1.584 0 2.69-1.175 2.69-3.699v-6.374h3.556V57.77h-3.557v-1.48c-.672 1.044-1.908 1.784-3.557 1.784-3.144 0-4.901-2.306-4.901-5.765zm-10.63-.283c1.8 0 3.167.914 3.754 1.74V38.19h3.556v19.58h-3.556v-1.456c-.565.826-1.953 1.74-3.753 1.74-3.47 0-6.117-3.111-6.117-6.81 0-3.72 2.646-6.809 6.117-6.809m.758 3.263c-1.952 0-3.274 1.522-3.274 3.546 0 2.046 1.322 3.547 3.274 3.547s3.276-1.523 3.276-3.547c0-2.045-1.324-3.546-3.276-3.546m-15.075-3.263c3.405 0 6.4 2.197 6.4 6.417 0 .306 0 .675-.044 1.219h-9.74c.217 1.741 1.736 2.72 3.47 2.72 1.606 0 2.778-.761 3.363-1.653l2.647 1.98c-1.194 1.74-3.298 2.914-6.03 2.914-3.883 0-6.898-2.697-6.898-6.809 0-3.852 2.884-6.788 6.832-6.788m-3.254 5.221h6.095c-.303-1.545-1.604-2.262-2.95-2.262-1.322-.023-2.798.652-3.145 2.262"/>
	<path fill="#1f2f61" d="M44.754 58.25c3.99 0 6.79-2.372 6.79-5.875 0-2.96-1.714-4.744-4.643-5.809l-1.54-.565c-2.104-.761-3.057-1.307-3.057-2.524 0-1.153 1.278-1.763 2.666-1.763 1.303 0 2.408.456 3.32 1.327l2.559-2.655c-1.54-1.566-3.579-2.349-5.9-2.349-3.817 0-6.593 2.155-6.593 5.83 0 2.676 1.648 4.483 4.793 5.592l1.67.588c1.931.696 2.755 1.479 2.755 2.59 0 1.174-1.064 1.957-2.668 1.957s-3.254-.87-4.317-2.415l-2.797 2.742c1.278 1.936 3.882 3.329 6.962 3.329m29.5-.457h3.797V43.977h-3.796zm13.015.304c.695 0 1.172-.022 1.627-.108v-3.307a8 8 0 0 1-.737.021c-1.65 0-2.364-.653-2.364-2.372v-5.025h2.993v-3.33h-2.993V39.17H82.02v4.808h-2.17v3.33h2.17v5.808c0 3.394 2.321 4.982 5.25 4.982m9.414.088c2.754 0 5.054-1.632 6.16-4.026l-3.211-1.741c-.52 1.328-1.648 2.197-2.95 2.197-1.735 0-3.123-1.63-3.123-3.697s1.366-3.635 3.124-3.635c1.3 0 2.406.827 2.928 2.176l3.21-1.762c-1.106-2.415-3.405-4.003-6.138-4.003-3.862 0-6.855 3.155-6.855 7.201 0 4.047 3.015 7.267 6.855 7.29m7.657-.371h3.773v-6.767c0-2.632 1.303-3.894 3.06-3.894 1.561 0 2.407 1.176 2.407 3.198v7.442h3.795v-8.095c0-3.59-1.995-6.004-5.335-6.004-1.779 0-3.19.74-3.927 1.85V39.17h-3.773zM76.163 42.606c1.301 0 2.386-1.088 2.386-2.414a2.397 2.397 0 0 0-2.386-2.394c-1.301 0-2.408 1.088-2.408 2.394 0 1.305 1.085 2.414 2.408 2.414M55.6 57.814h3.774l2.495-7.853 2.625 7.853h3.752l4.533-13.837h-4.012l-2.604 8.854-2.841-8.854h-2.864l-2.776 8.854-2.624-8.854h-4.057z"/>
	<path d="M68.582 252.304H66.56l.719-3.43H50.231l-1.78 8.882h6.807l.425-2.208h-4.016l.267-1.223h3.99l.398-2.021h-3.99l.24-1.224h6.357l-1.356 6.676h2.792l1.329-6.676h2.34l-1.33 6.676h2.794l.664-3.431h2.021l-.692 3.43h2.793l1.782-8.882h-2.792z"/>
	<path fill="#fbaa19" d="M113.58 63.82h12.863v-3.44h-12.862z"/>
</svg>
